<svg xmlns="http://www.w3.org/2000/svg" xmlns:xlink="http://www.w3.org/1999/xlink" width="76" height="76" viewBox="0 0 76 76">
  <defs>
    <clipPath id="clip-path">
      <rect id="Rectangle_4854" data-name="Rectangle 4854" width="35.892" height="58.547" fill="none"/>
    </clipPath>
  </defs>
  <g id="Group_39993" data-name="Group 39993" transform="translate(-645 -2922)">
    <g id="Rectangle_4831" data-name="Rectangle 4831" transform="translate(645 2922)" fill="none" stroke="#e853ac" stroke-width="1">
      <rect width="76" height="76" rx="38" stroke="none"/>
      <rect x="0.5" y="0.5" width="75" height="75" rx="37.5" fill="none"/>
    </g>
    <g id="Group_39989" data-name="Group 39989" transform="translate(665.053 2931.453)">
      <rect id="Rectangle_4846" data-name="Rectangle 4846" width="9.35" height="17.94" transform="translate(13.593 13.161)" fill="#000c33"/>
      <g id="Group_39988" data-name="Group 39988">
        <g id="Group_39987" data-name="Group 39987" clip-path="url(#clip-path)">
          <path id="Path_25404" data-name="Path 25404" d="M16.935,0H45.994a2.019,2.019,0,1,1,0,4.037H16.935a2.019,2.019,0,1,1,0-4.037" transform="translate(-13.097)" fill="#000c33"/>
          <rect id="Rectangle_4847" data-name="Rectangle 4847" width="3.968" height="13.4" transform="translate(4.473 4.037)" fill="#ff6ec4"/>
          <rect id="Rectangle_4848" data-name="Rectangle 4848" width="3.968" height="13.4" transform="translate(8.441 4.037)" fill="#f3265e"/>
          <rect id="Rectangle_4849" data-name="Rectangle 4849" width="3.968" height="13.4" transform="translate(12.408 4.037)" fill="#ff6ec4"/>
          <rect id="Rectangle_4850" data-name="Rectangle 4850" width="3.968" height="13.4" transform="translate(16.376 4.037)" fill="#f3265e"/>
          <rect id="Rectangle_4851" data-name="Rectangle 4851" width="3.968" height="13.4" transform="translate(20.343 4.037)" fill="#ff6ec4"/>
          <rect id="Rectangle_4852" data-name="Rectangle 4852" width="3.968" height="13.4" transform="translate(24.311 4.037)" fill="#f3265e"/>
          <rect id="Rectangle_4853" data-name="Rectangle 4853" width="3.968" height="13.4" transform="translate(28.279 4.037)" fill="#ff6ec4"/>
          <path id="Path_25405" data-name="Path 25405" d="M23.728,199.043a5.017,5.017,0,0,1-2.989-1.347,4.437,4.437,0,0,0-1.148-.734,4.554,4.554,0,0,0-1.435.055,4.875,4.875,0,0,1-3.192-.32,4.979,4.979,0,0,1-1.887-2.63,4.5,4.5,0,0,0-.65-1.245,4.5,4.5,0,0,0-1.245-.65,4.979,4.979,0,0,1-2.63-1.886,4.875,4.875,0,0,1-.32-3.192,4.565,4.565,0,0,0,.055-1.434,4.43,4.43,0,0,0-.734-1.148,3.989,3.989,0,0,1,0-5.978,4.428,4.428,0,0,0,.734-1.148,4.561,4.561,0,0,0-.055-1.434,4.875,4.875,0,0,1,.32-3.193,4.979,4.979,0,0,1,2.63-1.887,4.506,4.506,0,0,0,1.245-.65,4.5,4.5,0,0,0,.65-1.245,4.978,4.978,0,0,1,1.887-2.63,4.875,4.875,0,0,1,3.192-.32,4.564,4.564,0,0,0,1.434.055,4.429,4.429,0,0,0,1.148-.734A5.015,5.015,0,0,1,23.728,164a5.016,5.016,0,0,1,2.989,1.347,4.435,4.435,0,0,0,1.148.734,4.56,4.56,0,0,0,1.434-.055,4.876,4.876,0,0,1,3.192.32,4.979,4.979,0,0,1,1.887,2.63,4.509,4.509,0,0,0,.65,1.245,4.5,4.5,0,0,0,1.245.65,4.978,4.978,0,0,1,2.63,1.886,4.876,4.876,0,0,1,.32,3.192,4.566,4.566,0,0,0-.055,1.434,4.435,4.435,0,0,0,.734,1.148,3.989,3.989,0,0,1,0,5.978,4.434,4.434,0,0,0-.734,1.148,4.564,4.564,0,0,0,.055,1.434,4.875,4.875,0,0,1-.32,3.193,4.978,4.978,0,0,1-2.63,1.887,4.505,4.505,0,0,0-1.245.65,4.5,4.5,0,0,0-.65,1.245,4.978,4.978,0,0,1-1.887,2.63,4.875,4.875,0,0,1-3.192.32,4.572,4.572,0,0,0-1.434-.055,4.436,4.436,0,0,0-1.148.734A5.015,5.015,0,0,1,23.728,199.043Z" transform="translate(-5.448 -143.995)" fill="#000c33"/>
          <path id="Path_25406" data-name="Path 25406" d="M38.373,211.654a4.434,4.434,0,0,1-2.642-1.191,3.918,3.918,0,0,0-1.015-.649,4.03,4.03,0,0,0-1.268.049,4.31,4.31,0,0,1-2.822-.283,4.4,4.4,0,0,1-1.668-2.325,3.977,3.977,0,0,0-.575-1.1,3.978,3.978,0,0,0-1.1-.575,4.4,4.4,0,0,1-2.325-1.667,4.309,4.309,0,0,1-.283-2.822,4.033,4.033,0,0,0,.049-1.268,3.916,3.916,0,0,0-.649-1.015,3.526,3.526,0,0,1,0-5.284,3.917,3.917,0,0,0,.649-1.015,4.036,4.036,0,0,0-.049-1.268,4.31,4.31,0,0,1,.283-2.822,4.4,4.4,0,0,1,2.325-1.667,3.982,3.982,0,0,0,1.1-.575,3.978,3.978,0,0,0,.575-1.1,4.4,4.4,0,0,1,1.668-2.325,4.308,4.308,0,0,1,2.822-.283,4.037,4.037,0,0,0,1.268.049,3.916,3.916,0,0,0,1.015-.649,4.433,4.433,0,0,1,2.642-1.191,4.434,4.434,0,0,1,2.642,1.191,3.92,3.92,0,0,0,1.015.649,4.034,4.034,0,0,0,1.268-.049,4.31,4.31,0,0,1,2.822.283,4.4,4.4,0,0,1,1.668,2.325,3.978,3.978,0,0,0,.575,1.1,3.978,3.978,0,0,0,1.1.575,4.4,4.4,0,0,1,2.325,1.667,4.309,4.309,0,0,1,.283,2.822,4.033,4.033,0,0,0-.049,1.268,3.918,3.918,0,0,0,.649,1.015,3.526,3.526,0,0,1,0,5.284,3.92,3.92,0,0,0-.649,1.015,4.029,4.029,0,0,0,.049,1.268,4.308,4.308,0,0,1-.283,2.822,4.4,4.4,0,0,1-2.325,1.668,3.983,3.983,0,0,0-1.1.575,3.978,3.978,0,0,0-.575,1.1,4.4,4.4,0,0,1-1.668,2.325,4.309,4.309,0,0,1-2.822.283,4.034,4.034,0,0,0-1.268-.049,3.916,3.916,0,0,0-1.015.649,4.433,4.433,0,0,1-2.642,1.191Z" transform="translate(-20.094 -158.64)" fill="#ff6ec4"/>
          <path id="Path_25407" data-name="Path 25407" d="M152.508,210.463a3.921,3.921,0,0,1,1.015-.649,4.038,4.038,0,0,1,1.268.049,4.31,4.31,0,0,0,2.822-.283,4.4,4.4,0,0,0,1.668-2.325,2.073,2.073,0,0,1,1.675-1.675,4.4,4.4,0,0,0,2.325-1.667,4.309,4.309,0,0,0,.283-2.822,4.026,4.026,0,0,1-.049-1.268,3.916,3.916,0,0,1,.649-1.015,3.526,3.526,0,0,0,0-5.284,3.915,3.915,0,0,1-.649-1.015,4.029,4.029,0,0,1,.049-1.268,4.31,4.31,0,0,0-.283-2.822,4.4,4.4,0,0,0-2.325-1.667,2.073,2.073,0,0,1-1.675-1.675,4.4,4.4,0,0,0-1.668-2.325,4.309,4.309,0,0,0-2.822-.283,4.037,4.037,0,0,1-1.268.049,3.919,3.919,0,0,1-1.015-.649,4.432,4.432,0,0,0-2.642-1.191v30.976a4.435,4.435,0,0,0,2.642-1.191Z" transform="translate(-131.586 -158.639)" fill="#f3265e"/>
          <path id="Path_25408" data-name="Path 25408" d="M63.527,209.327a11.994,11.994,0,1,1-11.994,11.994,11.994,11.994,0,0,1,11.994-11.994" transform="translate(-45.247 -183.795)" fill="#48068e"/>
          <path id="Path_25409" data-name="Path 25409" d="M66.377,219.94H53.905l-6.236,10.8,6.236,10.8H66.377l6.236-10.8Z" transform="translate(-41.855 -193.113)" fill="#000c33"/>
          <path id="Path_25410" data-name="Path 25410" d="M103.261,209.455l1.953-3.383H90.789l1.953,3.383Z" transform="translate(-79.715 -180.937)" fill="#ffcd52"/>
          <path id="Path_25411" data-name="Path 25411" d="M198.3,218.565h3.906L195,206.072l-1.953,3.383Z" transform="translate(-169.496 -180.937)" fill="#dd852f"/>
          <path id="Path_25412" data-name="Path 25412" d="M198.3,308.493l-5.259,9.11L195,320.986l7.213-12.493Z" transform="translate(-169.496 -270.865)" fill="#bc661e"/>
          <path id="Path_25413" data-name="Path 25413" d="M92.742,383.179l-1.953,3.383h14.425l-1.953-3.383Z" transform="translate(-79.715 -336.442)" fill="#dd852f"/>
          <path id="Path_25414" data-name="Path 25414" d="M35.563,308.493H31.657l7.213,12.493,1.953-3.383Z" transform="translate(-27.796 -270.865)" fill="#ffcd52"/>
          <path id="Path_25415" data-name="Path 25415" d="M40.823,209.455l-1.953-3.383-7.213,12.493h3.906Z" transform="translate(-27.796 -180.937)" fill="#ffe8b6"/>
          <path id="Path_25416" data-name="Path 25416" d="M97.544,247.239l1.945,3.941,4.349.632a.6.6,0,0,1,.334,1.029l-3.147,3.067.743,4.331a.6.6,0,0,1-.875.636L97,258.83l-3.89,2.045a.6.6,0,0,1-.875-.636l.743-4.331-3.147-3.067a.6.6,0,0,1,.334-1.029l4.349-.632,1.945-3.941a.6.6,0,0,1,1.082,0" transform="translate(-78.716 -216.787)" fill="#ffcd52"/>
          <path id="Path_25417" data-name="Path 25417" d="M152.408,251.18l-1.945-3.941a.6.6,0,0,0-.541-.336v7.461Z" transform="translate(-131.636 -216.787)" fill="#f79f3e"/>
          <path id="Path_25418" data-name="Path 25418" d="M0,341.388l8.606-4.968L5.66,333.656Z" transform="translate(0 -292.959)" fill="#ffe8b6"/>
          <path id="Path_25419" data-name="Path 25419" d="M9.526,360.245l-.92-3.933L0,361.28Z" transform="translate(0 -312.852)" fill="#ffcd52"/>
          <path id="Path_25420" data-name="Path 25420" d="M232.683,231.556l4.824-6.59-7.484,4.321Z" transform="translate(-201.966 -197.526)" fill="#dd852f"/>
          <path id="Path_25421" data-name="Path 25421" d="M225.453,229.287l7.484-4.321-8.119.883Z" transform="translate(-197.396 -197.526)" fill="#ffcd52"/>
          <path id="Path_25422" data-name="Path 25422" d="M153.316,402.355l-3.723-1.169V410.8Z" transform="translate(-131.347 -352.252)" fill="#dd852f"/>
          <path id="Path_25423" data-name="Path 25423" d="M122.792,410.8v-9.613l-3.723,1.169Z" transform="translate(-104.546 -352.252)" fill="#ffcd52"/>
          <path id="Path_25424" data-name="Path 25424" d="M121.41,150.069l3.438,1.169v-8.965Z" transform="translate(-106.601 -124.92)" fill="#ffe8b6"/>
          <path id="Path_25425" data-name="Path 25425" d="M149.593,142.273v8.965l3.438-1.169Z" transform="translate(-131.347 -124.92)" fill="#ffcd52"/>
          <path id="Path_25426" data-name="Path 25426" d="M8.336,228.9l2.874-2.64-8.325-4.807Z" transform="translate(-2.533 -194.443)" fill="#ffe8b6"/>
          <path id="Path_25427" data-name="Path 25427" d="M2.885,221.454l8.325,4.807.849-3.809Z" transform="translate(-2.533 -194.443)" fill="#ffcd52"/>
          <path id="Path_25428" data-name="Path 25428" d="M233.339,333.985l-2.731,2.393,7.764,4.483Z" transform="translate(-202.48 -293.248)" fill="#bc661e"/>
          <path id="Path_25429" data-name="Path 25429" d="M233.289,358.083l-7.764-4.483-.706,3.562Z" transform="translate(-197.396 -310.47)" fill="#dd852f"/>
        </g>
      </g>
    </g>
  </g>
</svg>
